<?xml version="1.0" encoding="utf-8"?>
<!-- Generator: Adobe Illustrator 23.1.1, SVG Export Plug-In . SVG Version: 6.00 Build 0)  -->
<svg version="1.1" id="Layer_1" xmlns="http://www.w3.org/2000/svg" xmlns:xlink="http://www.w3.org/1999/xlink" x="0px" y="0px"
	 viewBox="0 0 235.5 117.5" style="enable-background:new 0 0 235.5 117.5;" xml:space="preserve">
<style type="text/css">
	.st0{fill:#FFFFFF;}
	.st1{fill:#F4A50F;}
	.st2{fill:#727677;}
	.st3{fill:#2E5987;}
</style>
<rect x="-0.4" class="st0" width="235.9" height="117.5"/>
<path class="st1" d="M176.8,90.7c-10.7,0-20.8-5.2-26.8-14.1l4.8-3.2c8.2,12.1,24.7,15.3,36.8,7.1s15.3-24.7,7.1-36.8
	s-24.7-15.3-36.8-7.1c-2.8,1.9-5.3,4.4-7.2,7.2l-4.8-3.2c10-14.8,29.9-18.8,44.8-8.8s18.8,29.9,8.8,44.8
	C197.5,85.3,187.5,90.6,176.8,90.7L176.8,90.7z"/>
<path class="st2" d="M176.7,45.2c-7.3,0-13.2,5.9-13.2,13.2s5.9,13.3,13.2,13.3c7.3,0,13.2-5.9,13.2-13.2S184,45.1,176.7,45.2
	L176.7,45.2z M176.7,66c-4.2,0-7.5-3.4-7.5-7.5c0-4.1,3.4-7.5,7.5-7.5c4.2,0,7.5,3.4,7.5,7.5C184.2,62.5,180.8,65.9,176.7,66
	L176.7,66z"/>
<path class="st3" d="M26.5,62.3c0-5.6,3.9-9.9,9.6-9.9c2.4-0.1,4.7,0.8,6.4,2.4c2.2,2.1,3.3,5.3,3.3,9.1l-13.4,0
	c0.4,2.5,1.8,4.1,4.2,4.1c1.3,0.1,2.6-0.6,3.1-1.9l5.8,0c-0.5,1.8-1.6,3.4-3.2,4.4c-1.7,1.2-3.8,1.8-5.9,1.7
	C30.4,72.2,26.6,68,26.5,62.3z M39.8,60.3c-0.2-2.2-1.6-3.7-3.6-3.7c-2.3,0-3.4,1.5-3.9,3.7L39.8,60.3z"/>
<path class="st3" d="M49.7,45.5l19.5-0.1l0,5.5l-13,0l0,5.3l10.9,0l0,5.3l-10.9,0l0,10.2l-6.5,0L49.7,45.5z"/>
<path class="st1" d="M72.9,45.4l3.6,0c1.3,0,2.4,1.1,2.4,2.4l0,2.4l-3.6,0c-1.3,0-2.4-1.1-2.4-2.4L72.9,45.4z"/>
<rect x="72.9" y="52.8" transform="matrix(1 -3.098386e-03 3.098386e-03 1 -0.1923 0.2356)" class="st3" width="6" height="18.8"/>
<path class="st3" d="M83.3,45.3l6.1,0l0.1,26.2l-6.1,0L83.3,45.3z"/>
<path class="st3" d="M92.8,62.1c0-5.6,3.9-9.9,9.6-9.9c2.4-0.1,4.7,0.8,6.4,2.4c2.2,2.1,3.3,5.3,3.3,9.1l-13.4,0
	c0.4,2.5,1.8,4.1,4.2,4.1c1.3,0.1,2.6-0.6,3.1-1.9l5.8,0c-0.5,1.8-1.6,3.4-3.2,4.4c-1.7,1.2-3.8,1.8-5.9,1.7
	C96.8,72,92.9,67.8,92.8,62.1z M106.2,60.1c-0.2-2.2-1.6-3.7-3.6-3.7c-2.3,0-3.4,1.5-3.9,3.7L106.2,60.1z"/>
<path class="st2" d="M117.7,69.6c-1.9-1.8-2.9-4.3-2.8-6.9l5.8,0c0.1,2.7,1.5,4.6,4.6,4.6c2.5,0,3.9-1.4,3.9-3.5
	c0-2.2-1.5-3.3-4.3-3.3l-1.5,0l0-4.3l1.4,0c2.3,0,3.9-1,3.9-2.9c0-1.7-1.2-2.9-3.3-2.9c-2.7,0-3.9,1.7-4,3.9l-5.8,0
	c0.1-5,3.6-8.5,9.8-8.5c5.5,0,9.3,2.6,9.3,7.1c0,2.6-1.6,4.1-3.8,5l0,0.1c2.8,0.7,4.7,3.3,4.6,6.2c0,5.4-4.7,7.9-10,7.9
	C122,72,119.4,71.1,117.7,69.6z"/>
<path class="st2" d="M138.6,59c0-4.1,0.9-7.6,3-10.1c1.8-2.1,4.4-3.2,8-3.2c5.2,0,8.5,2.6,9.3,6.7l-5.9,0c-0.4-1.5-1.8-2.5-3.3-2.3
	c-3.1,0-4.8,2.3-5,6.3l0.1,0c1.5-1.6,3.6-2.5,5.8-2.4c4.9-0.1,8.9,3.7,9.1,8.5c0,0.1,0,0.3,0,0.4c0,5.4-4.2,9-10,9
	C142.4,72,138.7,66.5,138.6,59z M153.8,62.9c0.1-2.3-1.7-4.3-4.1-4.4c-0.1,0-0.2,0-0.2,0c-2.4,0-4.4,1.9-4.4,4.3
	c0,2.4,1.9,4.4,4.3,4.4C151.8,67.3,153.8,65.3,153.8,62.9z"/>
</svg>
